<svg xmlns="http://www.w3.org/2000/svg" viewBox="0 0 64 160" width="64" height="160">
  <g transform="translate(32, 80) rotate(0) translate(-32, -80)">
    <!-- Trailer -->
    <rect x="6" y="42" width="52" height="112" rx="4" fill="#F1F5F9"/>
    <rect x="8" y="44" width="48" height="108" rx="2" fill="#E2E8F0"/>
    <rect x="12" y="152" width="40" height="4" rx="1" fill="#94A3B8"/>
    <!-- Cab -->
    <path d="M 12 40 L 52 40 L 52 14 Q 52 8 46 8 L 18 8 Q 12 8 12 14 Z" fill="#1FB6C9"/>
    <!-- Windshield -->
    <path d="M 14 20 Q 32 14 50 20 L 50 26 L 14 26 Z" fill="#1A202C"/>
    <!-- Headlights -->
    <rect x="14" y="6" width="10" height="4" rx="1" fill="#FEF08A"/>
    <rect x="40" y="6" width="10" height="4" rx="1" fill="#FEF08A"/>
    <!-- Mirrors -->
    <rect x="8" y="20" width="4" height="12" rx="1" fill="#475569"/>
    <rect x="52" y="20" width="4" height="12" rx="1" fill="#475569"/>
  </g>
</svg>